<?xml version="1.0" encoding="utf-8"?>
<!-- Generator: Adobe Illustrator 13.0.0, SVG Export Plug-In . SVG Version: 6.00 Build 14948)  -->
<!DOCTYPE svg PUBLIC "-//W3C//DTD SVG 1.0//EN" "http://www.w3.org/TR/2001/REC-SVG-20010904/DTD/svg10.dtd">
<svg version="1.0" id="Layer_1" xmlns="http://www.w3.org/2000/svg" xmlns:xlink="http://www.w3.org/1999/xlink" x="0px" y="0px"
	 width="258.587px" height="37.405px" viewBox="0 0 258.587 37.405" enable-background="new 0 0 258.587 37.405"
	 xml:space="preserve">
<g>
	<g>
		<path fill="#034EA1" d="M246.957,37.188c0,0-11.818,0.949-12.102-8.587V10.167c0,0-1.466-10.164,11.781-10.164
			c0,0,8.624-0.283,10.908,4.838c0,0,1.118,1.372,0.817,7.028h-9.188V8.965c0,0-0.008-2.334-2.386-2.334
			c0,0-2.499,0.107-2.499,2.061v19.073c0,0-0.112,2.555,2.706,2.555c0,0,2.292-0.047,2.292-2.733v-5.524h-2.49v-5.13h11.79v10.833
			c0,0-0.037,2.284-0.968,3.608c0,0-0.958,1.448-1.323,1.729C256.296,33.102,253.102,37.188,246.957,37.188z"/>
		<g>
			<polygon fill="#034EA1" points="222.641,1.383 213.443,1.383 214.102,22.513 213.697,22.513 204.387,1.383 193.234,1.383 
				193.234,36.212 202.302,36.212 201.765,14.912 202.161,14.912 211.818,36.212 222.641,36.212 			"/>
		</g>
		<g>
			<path fill="#034EA1" d="M165.708,1.233h-9.96v26.119c0,0-1.022,9.875,12.929,9.875c0,0,12.119,0.14,12.119-9.424V1.233h-9.724
				v26.25c0,0,0.122,2.874-2.546,2.874c0,0-2.801,0.151-2.801-2.8L165.708,1.233z"/>
		</g>
		<g>
			<path fill="#034EA1" d="M144.306,12.019l-0.011-4.378c0,0,0.696-7.149-10.794-7.46c0,0-9.047-0.591-11.649,4.275
				c0,0-1.006,1.09-1.006,4.877v2.724c0,0-0.112,3.167,1.495,5.191c0,0,0.919,1.339,3.157,2.809c0,0,4.576,2.457,7.3,3.848
				c0,0,2.761,1.578,2.404,4.086c0,0-0.233,2.583-2.903,2.476c0,0-2.434-0.108-2.434-2.635v-2.965h-9.77v4.309
				c0,0-0.272,8.23,12.279,8.23c0,0,11.987,0.254,12.551-8.446v-3.503c0,0,0.413-5.337-4.237-8.137c0,0-2.488-1.541-4.03-2.143
				c0,0-4.772-2.197-5.73-3.255c0,0-1.852-1.753-0.771-3.791c0,0,0.471-1.325,2.433-1.325c0,0,2.547,0.141,2.547,2.246v2.968
				H144.306z"/>
		</g>
		<polygon fill="#034EA1" points="71.746,1.374 70.967,36.201 80.042,36.201 80.137,9.96 80.851,9.96 85.661,36.192 95.197,36.192 
			99.941,9.97 100.579,9.97 100.788,36.201 109.91,36.201 108.923,1.374 93.758,1.374 90.706,20.426 89.983,20.426 87.051,1.374 		
			"/>
		<polygon fill="#034EA1" points="61.243,36.165 55.202,1.345 39.808,1.345 33.786,36.165 43.533,36.165 47.104,9.163 47.911,9.163 
			51.481,36.165 		"/>
		<path fill="#034EA1" d="M24.203,12.019l-0.019-4.378c0,0,0.714-7.149-10.786-7.46c0,0-9.046-0.591-11.64,4.275
			c0,0-1.023,1.09-1.023,4.877v2.724c0,0-0.094,3.167,1.512,5.191c0,0,0.911,1.339,3.157,2.809c0,0,4.557,2.457,7.291,3.848
			c0,0,2.762,1.578,2.396,4.086c0,0-0.226,2.583-2.895,2.476c0,0-2.434-0.108-2.434-2.635v-2.965H0v4.309c0,0-0.282,8.23,12.27,8.23
			c0,0,11.989,0.254,12.552-8.446v-3.503c0,0,0.413-5.337-4.247-8.137c0,0-2.48-1.541-4.021-2.143c0,0-4.773-2.197-5.721-3.255
			c0,0-1.852-1.753-0.771-3.791c0,0,0.461-1.325,2.415-1.325c0,0,2.565,0.141,2.565,2.246v2.968H24.203z"/>
	</g>
</g>
</svg>
